<?xml version="1.0" encoding="utf-8"?>
<!-- Generator: Adobe Illustrator 27.5.0, SVG Export Plug-In . SVG Version: 6.00 Build 0)  -->
<svg version="1.1" id="ybs" xmlns="http://www.w3.org/2000/svg" xmlns:xlink="http://www.w3.org/1999/xlink" x="0px" y="0px"
	 viewBox="0 0 204.4 204.3" style="enable-background:new 0 0 204.4 204.3;" xml:space="preserve">
<style type="text/css">
	.st0{fill:#FFFFFF;}
	.st1{fill:#FFFFFF;stroke:#FFFFFF;stroke-miterlimit:10;}
</style>
<path class="st0" d="M172.4,117.2c0,3.8-0.8,7.3-2.4,10.3c-1.6,3.1-4,5.5-7,7.2c-3.1,1.7-6.8,2.6-11,2.6c-5.1,0-9.3-1.2-12.6-3.5
	c-2.3-1.7-4.2-4-5.7-6.8c-1.5-2.8-2.2-5.6-2.2-8.3c0-1.6,0.4-2.9,1.3-4c0.9-1.1,2-1.7,3.4-1.7c1.1,0,2,0.4,2.8,1.3s1.4,2.1,2,3.9
	c0.7,2,1.4,3.7,2.1,5.1c0.8,1.4,1.8,2.5,3.2,3.4c1.4,0.9,3.2,1.3,5.4,1.3c3.1,0,5.6-0.9,7.5-2.7c1.9-1.8,2.9-4,2.9-6.6
	c0-2.1-0.5-3.8-1.6-5.1c-1-1.3-2.4-2.3-4-3s-3.9-1.4-6.6-2.2c-3.7-1.1-6.8-2.3-9.3-3.7c-2.5-1.4-4.5-3.4-5.9-5.8s-2.2-5.5-2.2-9.2
	c0-3.5,0.8-6.6,2.3-9.3c1.5-2.7,3.8-4.8,6.7-6.3c2.9-1.5,6.4-2.2,10.3-2.2c3.2,0,5.9,0.5,8.2,1.4c2.3,1,4.2,2.2,5.7,3.9
	s2.6,3.3,3.3,5c0.7,1.8,1.1,3.5,1.1,5.1c0,1.5-0.4,2.9-1.3,4.1c-0.9,1.2-2,1.8-3.3,1.8c-1.2,0-2.1-0.4-2.7-1.1
	c-0.6-0.7-1.3-1.9-2-3.6c-0.9-2.4-2.1-4.3-3.4-5.6c-1.3-1.3-3.4-2-6.3-2c-2.7,0-4.9,0.7-6.5,2.2c-1.7,1.5-2.5,3.2-2.5,5.3
	c0,1.3,0.3,2.4,0.8,3.3c0.6,0.9,1.3,1.7,2.3,2.4c1,0.7,2,1.2,3,1.6c1,0.4,2.7,0.9,5,1.6c2.9,0.8,5.5,1.8,7.9,2.8
	c2.4,1,4.4,2.2,6,3.7c1.7,1.4,2.9,3.3,3.9,5.5C172,111.3,172.4,114,172.4,117.2z"/>
<path class="st0" d="M103.5,136.2H87.8c-2.3,0-3.9-0.6-4.9-1.9c-1-1.3-1.5-3.3-1.5-6V80.6c0-2.8,0.5-4.8,1.5-6
	c1-1.2,2.6-1.8,4.8-1.8h16.7c2.5,0,4.6,0.2,6.4,0.6c1.8,0.4,3.4,1.1,4.9,2.2c1.2,0.9,2.3,2,3.2,3.4c0.9,1.4,1.7,2.9,2.1,4.5
	c0.5,1.7,0.7,3.4,0.7,5.3c0,6.3-2.6,11-7.7,13.9c6.8,2.7,10.2,7.8,10.2,15.5c0,3.5-0.7,6.7-2.2,9.6c-1.5,2.8-3.5,4.9-6,6.3
	c-1.6,0.8-3.4,1.4-5.4,1.7C108.6,136,106.2,136.2,103.5,136.2z M91.9,82.4v16.4h9.6c2.6,0,4.6-0.3,6-0.9c1.4-0.6,2.5-1.8,3.3-3.5
	c0.6-1.2,0.9-2.6,0.9-4.1c0-3.2-0.9-5.3-2.8-6.4c-1.9-1.1-4.7-1.6-8.5-1.6H91.9z M102.7,108H91.9v18.5h11.2c7.1,0,10.6-3.1,10.6-9.4
	c0-3.2-0.9-5.5-2.7-7C109.1,108.8,106.4,108,102.7,108z"/>
<path class="st0" d="M48,129.5v-20.1l-12.6-24c-1.1-2.2-1.9-3.9-2.3-5.1c-0.5-1.2-0.7-2.3-0.7-3.2c0-1.5,0.5-2.7,1.4-3.8
	c0.9-1.1,2.1-1.6,3.4-1.6c1.4,0,2.5,0.5,3.3,1.5s1.8,3,3.3,5.9l9.6,19.3l9.7-19.3c0.6-1.2,1.1-2.2,1.5-3c0.4-0.8,0.8-1.6,1.3-2.3
	c0.5-0.7,1-1.2,1.6-1.6c0.6-0.4,1.3-0.6,2.1-0.6c1.3,0,2.4,0.5,3.3,1.6c0.9,1.1,1.3,2.3,1.3,3.7c0,1.1-0.2,2.2-0.7,3.4
	S72.4,83,71.3,85l-12.9,24.4v20.1c0,2.6-0.5,4.6-1.5,5.9s-2.2,1.9-3.8,1.9c-1.5,0-2.8-0.6-3.8-1.9C48.5,134.1,48,132.1,48,129.5z"/>
<path class="st1" d="M194.4,103.6c-0.1,8.5-1.5,24.3-10.3,41.3c-15.4,29.8-42.2,41-48.3,43.4c-22,8.6-41.2,6.4-48.9,5.1
	c-27.2-4.5-44.2-20-49.9-25.7c-26-25.8-27.3-58-27.5-63.8C8.9,72.7,24.2,51.2,28.6,45.5c5-6.6,20.7-25.4,48.8-33.2
	c36.1-10,65.3,6,70.8,9.2c0,0,29.6,17,41.9,50.8c2.2,6.1,4.9,17.7,4.6,22.2c-0.1,2.5,0,4.9-0.1,7.4c-0.1,1.4-0.2,2,0.1,2.8
	c1.1,2.9,5.7,4.7,7.5,3.3c0.7-0.5,0.8-1.9,1.2-4.6c0.3-2.6,0.3-4.3,0.3-4.3c-0.1-6.3-0.2-10-0.9-14.4c-0.6-3.5-2-10.8-6.8-21.1
	c-3.1-6.7-9.3-20.2-22.2-33.1C153.1,9.9,128.8,4.3,122,2.9c-8.5-1.7-40.8-7-72.8,12.6c-4.9,3-27.1,17.3-39.6,46.5
	C5.1,72.6-3.5,97.7,4.4,127.7c7.6,28.8,25.9,45.3,31.9,50.5c15.5,13.5,30.8,18.9,35.7,20.4c7,2.2,24.2,6.8,46,3.3
	c6.3-1,24.3-4.6,42.9-17.9c18.2-13.1,27.2-28.5,29.7-33.2c1.5-2.7,8.9-16.7,11.6-36.5c0.6-4.3,0.8-7.9,0.9-10.5"/>
</svg>
